<svg id="svg" version="1.1" width="400" height="389.3333333333333" viewBox="0 0 400 389.3333333333333" xmlns="http://www.w3.org/2000/svg" xmlns:xlink="http://www.w3.org/1999/xlink" ><g id="svgg"><path id="path0" d="M197.858 0.389 C 197.858 0.604,197.420 0.779,196.884 0.779 C 196.349 0.779,195.910 0.954,195.910 1.168 C 195.910 1.383,195.648 1.558,195.326 1.558 C 195.005 1.558,194.742 1.821,194.742 2.142 C 194.742 2.463,194.479 2.726,194.158 2.726 C 193.836 2.726,193.574 2.914,193.574 3.144 C 193.574 3.754,192.699 4.528,191.623 4.870 C 190.568 5.204,188.510 7.115,188.510 7.760 C 188.510 7.990,188.104 8.179,187.607 8.179 C 186.645 8.179,184.226 10.085,184.226 10.843 C 184.226 11.092,183.963 11.295,183.642 11.295 C 183.320 11.295,183.057 11.558,183.057 11.879 C 183.057 12.243,182.690 12.463,182.084 12.463 C 181.548 12.463,181.110 12.639,181.110 12.853 C 181.110 13.067,180.847 13.242,180.526 13.242 C 180.204 13.242,179.942 13.505,179.942 13.827 C 179.942 14.148,179.679 14.411,179.357 14.411 C 179.036 14.411,178.773 14.674,178.773 14.995 C 178.773 15.359,178.405 15.579,177.799 15.579 C 177.194 15.579,176.826 15.800,176.826 16.164 C 176.826 16.485,176.563 16.748,176.241 16.748 C 175.920 16.748,175.657 16.923,175.657 17.137 C 175.657 17.352,175.394 17.527,175.073 17.527 C 174.752 17.527,174.489 17.790,174.489 18.111 C 174.489 18.432,174.226 18.695,173.905 18.695 C 173.583 18.695,173.320 18.958,173.320 19.279 C 173.320 19.643,172.953 19.864,172.347 19.864 C 171.741 19.864,171.373 20.084,171.373 20.448 C 171.373 20.769,171.174 21.032,170.931 21.032 C 170.688 21.032,170.082 21.470,169.586 22.006 C 169.090 22.541,168.407 22.980,168.069 22.980 C 167.730 22.980,167.353 23.242,167.229 23.564 C 167.106 23.885,166.761 24.148,166.463 24.148 C 166.164 24.148,165.920 24.411,165.920 24.732 C 165.920 25.054,165.732 25.316,165.503 25.316 C 164.964 25.316,163.973 26.307,163.973 26.847 C 163.973 27.076,163.529 27.264,162.987 27.264 C 162.445 27.264,161.900 27.527,161.777 27.848 C 161.653 28.169,161.308 28.432,161.010 28.432 C 160.712 28.432,160.467 28.620,160.467 28.850 C 160.467 29.497,159.430 30.380,158.668 30.380 C 158.290 30.380,157.327 31.081,156.528 31.938 C 155.729 32.795,154.887 33.496,154.656 33.496 C 154.425 33.496,154.236 33.759,154.236 34.080 C 154.236 34.407,153.888 34.664,153.444 34.664 C 153.009 34.664,152.552 34.927,152.429 35.248 C 152.306 35.570,151.961 35.833,151.662 35.833 C 151.364 35.833,151.120 36.095,151.120 36.417 C 151.120 36.738,150.857 37.001,150.536 37.001 C 150.214 37.001,149.951 37.157,149.951 37.348 C 149.951 37.539,149.513 37.805,148.978 37.940 C 148.442 38.074,148.004 38.356,148.004 38.566 C 148.004 38.776,147.741 38.948,147.420 38.948 C 147.098 38.948,146.835 39.211,146.835 39.533 C 146.835 39.854,146.573 40.117,146.251 40.117 C 145.930 40.117,145.667 40.380,145.667 40.701 C 145.667 41.022,145.404 41.285,145.083 41.285 C 144.761 41.285,144.499 41.461,144.499 41.675 C 144.499 41.889,144.143 42.064,143.707 42.064 C 143.272 42.064,142.815 42.327,142.692 42.648 C 142.569 42.970,142.224 43.233,141.925 43.233 C 141.627 43.233,141.383 43.496,141.383 43.817 C 141.383 44.138,141.120 44.401,140.798 44.401 C 140.477 44.401,140.214 44.664,140.214 44.985 C 140.214 45.322,139.862 45.570,139.383 45.570 C 138.925 45.570,138.145 46.008,137.648 46.543 C 137.152 47.079,136.562 47.517,136.338 47.517 C 136.114 47.517,135.930 47.780,135.930 48.101 C 135.930 48.423,135.755 48.685,135.540 48.685 C 135.326 48.685,135.151 48.948,135.151 49.270 C 135.151 49.638,134.780 49.854,134.147 49.854 C 133.143 49.854,130.867 51.725,130.867 52.550 C 130.867 52.781,130.423 52.970,129.881 52.970 C 129.338 52.970,128.794 53.233,128.671 53.554 C 128.547 53.875,128.277 54.138,128.071 54.138 C 127.565 54.138,126.582 55.149,126.582 55.668 C 126.582 55.898,126.319 56.086,125.998 56.086 C 125.677 56.086,125.414 56.349,125.414 56.670 C 125.414 57.012,125.051 57.259,124.537 57.267 C 123.533 57.281,122.298 58.103,122.298 58.758 C 122.298 59.002,122.035 59.202,121.714 59.202 C 121.392 59.202,121.130 59.464,121.130 59.786 C 121.130 60.149,120.762 60.370,120.156 60.370 C 119.550 60.370,119.182 60.591,119.182 60.954 C 119.182 61.276,118.919 61.538,118.598 61.538 C 118.277 61.538,118.014 61.714,118.014 61.928 C 118.014 62.142,117.751 62.317,117.429 62.317 C 117.108 62.317,116.845 62.580,116.845 62.902 C 116.845 63.223,116.582 63.486,116.261 63.486 C 115.940 63.486,115.677 63.749,115.677 64.070 C 115.677 64.434,115.309 64.654,114.703 64.654 C 114.097 64.654,113.729 64.875,113.729 65.239 C 113.729 65.560,113.530 65.823,113.287 65.823 C 113.044 65.823,112.439 66.261,111.943 66.796 C 111.446 67.332,110.763 67.770,110.425 67.770 C 110.087 67.770,109.709 68.033,109.586 68.354 C 109.463 68.676,109.117 68.939,108.819 68.939 C 108.521 68.939,108.277 69.202,108.277 69.523 C 108.277 69.844,108.089 70.107,107.859 70.107 C 107.320 70.107,106.329 71.098,106.329 71.637 C 106.329 71.867,105.945 72.055,105.475 72.055 C 104.981 72.055,104.010 72.711,103.169 73.612 C 102.370 74.469,101.483 75.176,101.199 75.183 C 100.525 75.200,98.929 76.536,98.929 77.083 C 98.929 77.316,98.666 77.507,98.345 77.507 C 98.023 77.507,97.760 77.770,97.760 78.092 C 97.760 78.413,97.498 78.676,97.176 78.676 C 96.855 78.676,96.592 78.851,96.592 79.065 C 96.592 79.279,96.154 79.455,95.618 79.455 C 95.012 79.455,94.645 79.675,94.645 80.039 C 94.645 80.360,94.382 80.623,94.060 80.623 C 93.739 80.623,93.476 80.886,93.476 81.207 C 93.476 81.529,93.213 81.792,92.892 81.792 C 92.571 81.792,92.308 81.948,92.308 82.139 C 92.308 82.330,91.870 82.596,91.334 82.731 C 90.798 82.865,90.360 83.147,90.360 83.357 C 90.360 83.567,90.097 83.739,89.776 83.739 C 89.455 83.739,89.192 84.002,89.192 84.323 C 89.192 84.645,88.929 84.907,88.608 84.907 C 88.286 84.907,88.023 85.170,88.023 85.492 C 88.023 85.813,87.760 86.076,87.439 86.076 C 87.118 86.076,86.855 86.251,86.855 86.465 C 86.855 86.680,86.540 86.855,86.155 86.855 C 85.770 86.855,85.025 87.373,84.500 88.007 C 83.974 88.640,83.325 89.166,83.057 89.175 C 82.790 89.184,82.571 89.455,82.571 89.776 C 82.571 90.113,82.219 90.360,81.739 90.360 C 81.281 90.360,80.501 90.798,80.005 91.334 C 79.509 91.870,78.919 92.308,78.694 92.308 C 78.470 92.308,78.286 92.571,78.286 92.892 C 78.286 93.213,78.111 93.476,77.897 93.476 C 77.683 93.476,77.507 93.739,77.507 94.060 C 77.507 94.428,77.136 94.645,76.506 94.645 C 75.479 94.645,74.391 95.431,74.391 96.175 C 74.391 96.404,74.129 96.592,73.807 96.592 C 73.486 96.592,73.223 96.855,73.223 97.176 C 73.223 97.531,72.861 97.760,72.304 97.760 C 71.778 97.760,71.072 98.177,70.653 98.734 C 70.251 99.270,69.701 99.708,69.430 99.708 C 69.160 99.708,68.939 99.971,68.939 100.292 C 68.939 100.656,68.571 100.876,67.965 100.876 C 67.359 100.876,66.991 101.097,66.991 101.461 C 66.991 101.782,66.728 102.045,66.407 102.045 C 66.086 102.045,65.823 102.308,65.823 102.629 C 65.823 102.950,65.560 103.213,65.239 103.213 C 64.917 103.213,64.654 103.389,64.654 103.603 C 64.654 103.817,64.391 103.992,64.070 103.992 C 63.749 103.992,63.486 104.255,63.486 104.576 C 63.486 104.904,63.138 105.161,62.695 105.161 C 62.260 105.161,61.803 105.424,61.679 105.745 C 61.556 106.066,61.211 106.329,60.913 106.329 C 60.614 106.329,60.370 106.592,60.370 106.913 C 60.370 107.235,60.107 107.498,59.786 107.498 C 59.464 107.498,59.202 107.673,59.202 107.887 C 59.202 108.101,58.846 108.277,58.410 108.277 C 57.975 108.277,57.518 108.539,57.395 108.861 C 57.272 109.182,56.927 109.445,56.628 109.445 C 56.330 109.445,56.086 109.708,56.086 110.029 C 56.086 110.351,55.887 110.613,55.643 110.613 C 55.400 110.613,54.795 111.052,54.299 111.587 C 53.803 112.123,53.120 112.561,52.781 112.561 C 52.443 112.561,52.066 112.824,51.942 113.145 C 51.819 113.466,51.474 113.729,51.175 113.729 C 50.877 113.729,50.633 113.917,50.633 114.147 C 50.633 114.757,49.758 115.531,48.682 115.872 C 47.628 116.207,45.570 118.118,45.570 118.763 C 45.570 118.993,45.307 119.182,44.985 119.182 C 44.664 119.182,44.401 119.338,44.401 119.529 C 44.401 119.720,43.963 119.987,43.427 120.121 C 42.892 120.255,42.454 120.537,42.454 120.747 C 42.454 120.958,42.191 121.130,41.870 121.130 C 41.548 121.130,41.285 121.392,41.285 121.714 C 41.285 122.035,41.022 122.298,40.701 122.298 C 40.380 122.298,40.117 122.561,40.117 122.882 C 40.117 123.219,39.765 123.466,39.285 123.466 C 38.828 123.466,38.047 123.905,37.551 124.440 C 37.055 124.976,36.465 125.414,36.241 125.414 C 36.016 125.414,35.833 125.677,35.833 125.998 C 35.833 126.319,35.570 126.582,35.248 126.582 C 34.927 126.582,34.664 126.845,34.664 127.167 C 34.664 127.530,34.296 127.751,33.690 127.751 C 33.155 127.751,32.717 127.926,32.717 128.140 C 32.717 128.354,32.454 128.530,32.132 128.530 C 31.811 128.530,31.548 128.793,31.548 129.114 C 31.548 129.435,31.285 129.698,30.964 129.698 C 30.643 129.698,30.380 129.961,30.380 130.282 C 30.380 130.646,30.012 130.867,29.406 130.867 C 28.800 130.867,28.432 131.087,28.432 131.451 C 28.432 131.772,28.169 132.035,27.848 132.035 C 27.527 132.035,27.264 132.210,27.264 132.425 C 27.264 132.639,27.001 132.814,26.680 132.814 C 26.358 132.814,26.095 133.077,26.095 133.398 C 26.095 133.720,25.920 133.982,25.706 133.982 C 25.492 133.982,25.316 134.245,25.316 134.567 C 25.316 134.918,24.956 135.151,24.413 135.151 C 23.451 135.151,21.032 137.057,21.032 137.815 C 21.032 138.063,20.638 138.270,20.156 138.274 C 19.674 138.277,18.867 138.715,18.362 139.247 C 17.858 139.779,17.288 140.214,17.096 140.214 C 16.905 140.214,16.748 140.477,16.748 140.798 C 16.748 141.120,16.485 141.383,16.164 141.383 C 15.842 141.383,15.579 141.646,15.579 141.967 C 15.579 142.330,15.212 142.551,14.606 142.551 C 14.000 142.551,13.632 142.772,13.632 143.135 C 13.632 143.457,13.369 143.720,13.048 143.720 C 12.726 143.720,12.463 143.895,12.463 144.109 C 12.463 144.323,12.201 144.499,11.879 144.499 C 11.558 144.499,11.295 144.761,11.295 145.083 C 11.295 145.446,10.927 145.667,10.321 145.667 C 9.715 145.667,9.348 145.888,9.348 146.251 C 9.348 146.573,9.085 146.835,8.763 146.835 C 8.442 146.835,8.179 147.098,8.179 147.420 C 8.179 147.741,7.980 148.004,7.737 148.004 C 7.494 148.004,6.889 148.442,6.392 148.978 C 5.896 149.513,5.213 149.951,4.875 149.951 C 4.537 149.951,4.159 150.214,4.036 150.536 C 3.912 150.857,3.567 151.120,3.269 151.120 C 2.971 151.120,2.726 151.383,2.726 151.704 C 2.726 152.025,2.463 152.288,2.142 152.288 C 1.821 152.288,1.558 152.463,1.558 152.678 C 1.558 152.892,1.207 153.067,0.779 153.067 C 0.006 153.067,0.000 153.327,0.000 186.758 C 0.000 216.752,0.065 220.448,0.596 220.448 C 0.924 220.448,1.294 220.185,1.417 219.864 C 1.540 219.542,1.885 219.279,2.184 219.279 C 2.482 219.279,2.726 219.017,2.726 218.695 C 2.726 218.374,2.914 218.111,3.144 218.111 C 3.683 218.111,4.674 217.120,4.674 216.581 C 4.674 216.351,5.058 216.164,5.528 216.164 C 6.007 216.164,6.992 215.523,7.774 214.703 C 8.540 213.900,9.821 212.908,10.621 212.500 C 11.420 212.091,12.074 211.521,12.074 211.234 C 12.074 210.946,12.337 210.711,12.658 210.711 C 12.980 210.711,13.242 210.448,13.242 210.127 C 13.242 209.768,13.607 209.542,14.188 209.542 C 14.732 209.542,15.458 209.129,15.899 208.569 C 16.321 208.033,16.859 207.595,17.096 207.595 C 17.333 207.595,17.527 207.332,17.527 207.011 C 17.527 206.689,17.790 206.426,18.111 206.426 C 18.432 206.426,18.695 206.164,18.695 205.842 C 18.695 205.505,19.047 205.258,19.527 205.258 C 19.984 205.258,20.765 204.820,21.261 204.284 C 21.757 203.749,22.347 203.311,22.571 203.311 C 22.796 203.311,22.980 203.048,22.980 202.726 C 22.980 202.363,23.347 202.142,23.953 202.142 C 24.559 202.142,24.927 201.921,24.927 201.558 C 24.927 201.237,25.190 200.974,25.511 200.974 C 25.833 200.974,26.095 200.798,26.095 200.584 C 26.095 200.370,26.358 200.195,26.680 200.195 C 27.001 200.195,27.264 199.932,27.264 199.611 C 27.264 199.289,27.527 199.026,27.848 199.026 C 28.169 199.026,28.432 198.763,28.432 198.442 C 28.432 198.079,28.800 197.858,29.406 197.858 C 30.012 197.858,30.380 197.637,30.380 197.274 C 30.380 196.952,30.579 196.689,30.822 196.689 C 31.065 196.689,31.670 196.251,32.167 195.716 C 32.663 195.180,33.346 194.742,33.684 194.742 C 34.022 194.742,34.400 194.479,34.523 194.158 C 34.647 193.836,34.916 193.574,35.123 193.574 C 35.628 193.574,36.611 192.563,36.611 192.043 C 36.611 191.814,36.996 191.626,37.465 191.626 C 37.959 191.626,38.931 190.970,39.772 190.068 C 40.571 189.211,41.413 188.510,41.644 188.510 C 41.875 188.510,42.064 188.247,42.064 187.926 C 42.064 187.598,42.412 187.342,42.855 187.342 C 43.291 187.342,43.748 187.079,43.871 186.758 C 43.994 186.436,44.339 186.173,44.638 186.173 C 44.936 186.173,45.180 185.910,45.180 185.589 C 45.180 185.268,45.443 185.005,45.764 185.005 C 46.086 185.005,46.349 184.849,46.349 184.658 C 46.349 184.467,46.787 184.200,47.322 184.066 C 47.858 183.932,48.296 183.650,48.296 183.440 C 48.296 183.229,48.559 183.057,48.880 183.057 C 49.202 183.057,49.464 182.795,49.464 182.473 C 49.464 182.152,49.727 181.889,50.049 181.889 C 50.370 181.889,50.633 181.626,50.633 181.305 C 50.633 180.983,50.896 180.721,51.217 180.721 C 51.538 180.721,51.801 180.564,51.801 180.373 C 51.801 180.182,52.240 179.916,52.775 179.782 C 53.311 179.647,53.749 179.365,53.749 179.155 C 53.749 178.945,54.012 178.773,54.333 178.773 C 54.654 178.773,54.917 178.510,54.917 178.189 C 54.917 177.868,55.180 177.605,55.501 177.605 C 55.823 177.605,56.086 177.342,56.086 177.020 C 56.086 176.657,56.454 176.436,57.059 176.436 C 57.595 176.436,58.033 176.261,58.033 176.047 C 58.033 175.833,58.296 175.657,58.617 175.657 C 58.939 175.657,59.202 175.394,59.202 175.073 C 59.202 174.752,59.464 174.489,59.786 174.489 C 60.107 174.489,60.370 174.226,60.370 173.905 C 60.370 173.583,60.545 173.320,60.759 173.320 C 60.974 173.320,61.149 173.057,61.149 172.736 C 61.149 172.368,61.520 172.152,62.153 172.152 C 63.157 172.152,65.433 170.281,65.433 169.455 C 65.433 169.225,65.840 169.036,66.337 169.036 C 67.298 169.036,69.718 167.130,69.718 166.372 C 69.718 166.124,70.112 165.917,70.594 165.913 C 71.076 165.910,71.883 165.472,72.388 164.940 C 72.892 164.408,73.462 163.973,73.653 163.973 C 73.845 163.973,74.002 163.710,74.002 163.389 C 74.002 163.067,74.265 162.804,74.586 162.804 C 74.907 162.804,75.170 162.541,75.170 162.220 C 75.170 161.857,75.538 161.636,76.144 161.636 C 76.750 161.636,77.118 161.415,77.118 161.052 C 77.118 160.730,77.381 160.467,77.702 160.467 C 78.023 160.467,78.286 160.292,78.286 160.078 C 78.286 159.864,78.549 159.688,78.870 159.688 C 79.192 159.688,79.455 159.426,79.455 159.104 C 79.455 158.741,79.823 158.520,80.428 158.520 C 81.034 158.520,81.402 158.299,81.402 157.936 C 81.402 157.614,81.665 157.352,81.986 157.352 C 82.308 157.352,82.571 157.089,82.571 156.767 C 82.571 156.446,82.833 156.183,83.155 156.183 C 83.476 156.183,83.739 156.008,83.739 155.794 C 83.739 155.579,84.002 155.404,84.323 155.404 C 84.645 155.404,84.907 155.141,84.907 154.820 C 84.907 154.456,85.275 154.236,85.881 154.236 C 86.487 154.236,86.855 154.015,86.855 153.651 C 86.855 153.330,87.118 153.067,87.439 153.067 C 87.760 153.067,88.023 152.804,88.023 152.483 C 88.023 152.162,88.286 151.899,88.608 151.899 C 88.929 151.899,89.192 151.727,89.192 151.517 C 89.192 151.307,89.630 151.025,90.166 150.890 C 90.701 150.756,91.139 150.490,91.139 150.299 C 91.139 150.108,91.402 149.951,91.723 149.951 C 92.045 149.951,92.308 149.688,92.308 149.367 C 92.308 149.046,92.571 148.783,92.892 148.783 C 93.213 148.783,93.476 148.520,93.476 148.199 C 93.476 147.867,93.826 147.614,94.286 147.614 C 95.117 147.614,98.539 144.505,98.539 143.750 C 98.539 143.519,98.946 143.330,99.443 143.330 C 100.405 143.330,102.824 141.424,102.824 140.666 C 102.824 140.418,103.218 140.209,103.700 140.202 C 104.705 140.188,105.940 139.365,105.940 138.711 C 105.940 138.467,106.203 138.267,106.524 138.267 C 106.845 138.267,107.108 138.004,107.108 137.683 C 107.108 137.361,107.371 137.098,107.692 137.098 C 108.014 137.098,108.277 136.835,108.277 136.514 C 108.277 136.151,108.644 135.930,109.250 135.930 C 109.786 135.930,110.224 135.755,110.224 135.540 C 110.224 135.326,110.487 135.151,110.808 135.151 C 111.130 135.151,111.392 134.888,111.392 134.567 C 111.392 134.245,111.655 133.982,111.977 133.982 C 112.298 133.982,112.561 133.720,112.561 133.398 C 112.561 133.035,112.929 132.814,113.535 132.814 C 114.140 132.814,114.508 132.593,114.508 132.230 C 114.508 131.908,114.771 131.646,115.093 131.646 C 115.414 131.646,115.677 131.470,115.677 131.256 C 115.677 131.042,115.940 130.867,116.261 130.867 C 116.582 130.867,116.845 130.604,116.845 130.282 C 116.845 129.961,117.108 129.698,117.429 129.698 C 117.751 129.698,118.014 129.435,118.014 129.114 C 118.014 128.750,118.381 128.530,118.987 128.530 C 119.593 128.530,119.961 128.309,119.961 127.945 C 119.961 127.624,120.160 127.361,120.403 127.361 C 120.646 127.361,121.252 126.923,121.748 126.388 C 122.244 125.852,122.927 125.414,123.265 125.414 C 123.604 125.414,123.981 125.151,124.105 124.830 C 124.228 124.508,124.573 124.245,124.871 124.245 C 125.170 124.245,125.414 123.982,125.414 123.661 C 125.414 123.340,125.677 123.077,125.998 123.077 C 126.319 123.077,126.582 122.902,126.582 122.687 C 126.582 122.473,126.938 122.298,127.373 122.298 C 127.809 122.298,128.266 122.035,128.389 121.714 C 128.512 121.392,128.857 121.130,129.156 121.130 C 129.454 121.130,129.698 120.867,129.698 120.545 C 129.698 120.224,129.873 119.961,130.088 119.961 C 130.302 119.961,130.477 119.698,130.477 119.377 C 130.477 119.056,130.740 118.793,131.061 118.793 C 131.383 118.793,131.646 118.617,131.646 118.403 C 131.646 118.189,131.952 118.008,132.327 118.001 C 133.129 117.985,134.761 116.712,134.761 116.101 C 134.761 115.868,135.024 115.677,135.346 115.677 C 135.667 115.677,135.930 115.520,135.930 115.329 C 135.930 115.138,136.368 114.872,136.904 114.738 C 137.439 114.603,137.877 114.322,137.877 114.111 C 137.877 113.901,138.140 113.729,138.462 113.729 C 138.783 113.729,139.046 113.466,139.046 113.145 C 139.046 112.824,139.309 112.561,139.630 112.561 C 139.951 112.561,140.214 112.298,140.214 111.977 C 140.214 111.655,140.477 111.392,140.798 111.392 C 141.120 111.392,141.383 111.217,141.383 111.003 C 141.383 110.789,141.739 110.613,142.174 110.613 C 142.609 110.613,143.066 110.351,143.189 110.029 C 143.313 109.708,143.658 109.445,143.956 109.445 C 144.254 109.445,144.499 109.182,144.499 108.861 C 144.499 108.539,144.761 108.277,145.083 108.277 C 145.404 108.277,145.667 108.014,145.667 107.692 C 145.667 107.355,146.019 107.108,146.499 107.108 C 146.956 107.108,147.736 106.670,148.233 106.134 C 148.729 105.599,149.319 105.161,149.543 105.161 C 149.768 105.161,149.951 104.898,149.951 104.576 C 149.951 104.213,150.319 103.992,150.925 103.992 C 151.531 103.992,151.899 103.772,151.899 103.408 C 151.899 103.087,152.087 102.824,152.318 102.824 C 152.863 102.824,155.015 100.672,155.015 100.127 C 155.015 99.897,155.458 99.708,156.001 99.708 C 156.543 99.708,157.087 99.445,157.211 99.124 C 157.334 98.802,157.604 98.539,157.810 98.539 C 158.316 98.539,159.299 97.529,159.299 97.009 C 159.299 96.780,159.683 96.592,160.153 96.592 C 160.647 96.592,161.618 95.936,162.459 95.034 C 163.258 94.177,164.101 93.476,164.332 93.476 C 164.563 93.476,164.752 93.213,164.752 92.892 C 164.752 92.528,165.120 92.308,165.725 92.308 C 166.331 92.308,166.699 92.087,166.699 91.723 C 166.699 91.402,166.962 91.139,167.283 91.139 C 167.605 91.139,167.868 90.964,167.868 90.750 C 167.868 90.536,168.130 90.360,168.452 90.360 C 168.773 90.360,169.036 90.097,169.036 89.776 C 169.036 89.448,169.384 89.192,169.827 89.192 C 170.262 89.192,170.719 88.929,170.843 88.608 C 170.966 88.286,171.311 88.023,171.609 88.023 C 171.908 88.023,172.152 87.760,172.152 87.439 C 172.152 87.118,172.415 86.855,172.736 86.855 C 173.057 86.855,173.320 86.699,173.320 86.508 C 173.320 86.317,173.759 86.050,174.294 85.916 C 174.830 85.782,175.268 85.500,175.268 85.290 C 175.268 85.079,175.531 84.907,175.852 84.907 C 176.173 84.907,176.436 84.645,176.436 84.323 C 176.436 84.002,176.699 83.739,177.020 83.739 C 177.342 83.739,177.605 83.476,177.605 83.155 C 177.605 82.833,177.868 82.571,178.189 82.571 C 178.510 82.571,178.773 82.399,178.773 82.189 C 178.773 81.978,179.211 81.696,179.747 81.562 C 180.282 81.428,180.721 81.161,180.721 80.970 C 180.721 80.779,180.983 80.623,181.305 80.623 C 181.626 80.623,181.889 80.360,181.889 80.039 C 181.889 79.718,182.152 79.455,182.473 79.455 C 182.795 79.455,183.057 79.192,183.057 78.870 C 183.057 78.539,183.407 78.286,183.867 78.286 C 184.698 78.286,188.121 75.177,188.121 74.422 C 188.121 74.191,188.572 74.002,189.124 74.002 C 190.129 74.002,192.405 72.131,192.405 71.306 C 192.405 71.075,192.849 70.886,193.391 70.886 C 193.933 70.886,194.478 70.623,194.601 70.302 C 194.724 69.981,194.994 69.718,195.201 69.718 C 195.706 69.718,196.689 68.707,196.689 68.188 C 196.689 67.958,196.952 67.770,197.274 67.770 C 197.595 67.770,197.858 67.519,197.858 67.212 C 197.858 66.892,198.316 66.601,198.929 66.530 C 200.669 66.330,202.142 66.651,202.142 67.230 C 202.142 67.527,202.405 67.770,202.726 67.770 C 203.048 67.770,203.311 68.033,203.311 68.354 C 203.311 68.676,203.574 68.939,203.895 68.939 C 204.216 68.939,204.479 69.114,204.479 69.328 C 204.479 69.542,204.742 69.718,205.063 69.718 C 205.385 69.718,205.648 69.981,205.648 70.302 C 205.648 70.665,206.015 70.886,206.621 70.886 C 207.227 70.886,207.595 71.107,207.595 71.470 C 207.595 71.792,207.858 72.055,208.179 72.055 C 208.500 72.055,208.763 72.254,208.763 72.498 C 208.763 73.153,209.998 73.975,211.003 73.990 C 211.517 73.997,211.879 74.244,211.879 74.586 C 211.879 74.907,212.142 75.170,212.463 75.170 C 212.785 75.170,213.048 75.359,213.048 75.590 C 213.048 76.324,215.293 78.286,216.134 78.286 C 216.593 78.286,216.943 78.539,216.943 78.870 C 216.943 79.192,217.205 79.455,217.527 79.455 C 217.848 79.455,218.111 79.718,218.111 80.039 C 218.111 80.360,218.374 80.623,218.695 80.623 C 219.017 80.623,219.279 80.779,219.279 80.970 C 219.279 81.161,219.718 81.428,220.253 81.562 C 220.789 81.696,221.227 81.978,221.227 82.189 C 221.227 82.399,221.490 82.571,221.811 82.571 C 222.132 82.571,222.395 82.833,222.395 83.155 C 222.395 83.476,222.565 83.739,222.771 83.739 C 222.978 83.739,223.685 84.265,224.343 84.907 C 225.000 85.550,225.795 86.076,226.109 86.076 C 226.423 86.076,226.680 86.251,226.680 86.465 C 226.680 86.680,226.943 86.855,227.264 86.855 C 227.585 86.855,227.848 87.118,227.848 87.439 C 227.848 87.760,228.092 88.023,228.391 88.023 C 228.689 88.023,229.034 88.286,229.157 88.608 C 229.281 88.929,229.738 89.192,230.173 89.192 C 230.616 89.192,230.964 89.448,230.964 89.776 C 230.964 90.097,231.227 90.360,231.548 90.360 C 231.870 90.360,232.132 90.536,232.132 90.750 C 232.132 90.964,232.395 91.139,232.717 91.139 C 233.038 91.139,233.301 91.402,233.301 91.723 C 233.301 92.087,233.669 92.308,234.275 92.308 C 234.880 92.308,235.248 92.528,235.248 92.892 C 235.248 93.213,235.511 93.476,235.833 93.476 C 236.154 93.476,236.417 93.651,236.417 93.866 C 236.417 94.080,236.680 94.255,237.001 94.255 C 237.322 94.255,237.585 94.428,237.585 94.640 C 237.585 95.401,238.945 96.592,239.814 96.592 C 240.302 96.592,240.701 96.780,240.701 97.009 C 240.701 97.529,241.684 98.539,242.190 98.539 C 242.396 98.539,242.666 98.802,242.789 99.124 C 242.913 99.445,243.457 99.708,243.999 99.708 C 244.542 99.708,244.985 99.897,244.985 100.127 C 244.985 100.649,247.126 102.824,247.640 102.824 C 247.848 102.824,248.119 103.087,248.242 103.408 C 248.365 103.729,248.822 103.992,249.257 103.992 C 249.701 103.992,250.049 104.249,250.049 104.576 C 250.049 104.898,250.232 105.161,250.457 105.161 C 250.681 105.161,251.271 105.599,251.767 106.134 C 252.264 106.670,253.044 107.108,253.501 107.108 C 253.981 107.108,254.333 107.355,254.333 107.692 C 254.333 108.014,254.596 108.277,254.917 108.277 C 255.239 108.277,255.501 108.539,255.501 108.861 C 255.501 109.182,255.746 109.445,256.044 109.445 C 256.342 109.445,256.687 109.708,256.811 110.029 C 256.934 110.351,257.391 110.613,257.826 110.613 C 258.261 110.613,258.617 110.789,258.617 111.003 C 258.617 111.217,258.880 111.392,259.202 111.392 C 259.523 111.392,259.786 111.655,259.786 111.977 C 259.786 112.298,260.049 112.561,260.370 112.561 C 260.691 112.561,260.954 112.824,260.954 113.145 C 260.954 113.466,261.217 113.729,261.538 113.729 C 261.860 113.729,262.123 113.901,262.123 114.111 C 262.123 114.322,262.561 114.603,263.096 114.738 C 263.632 114.872,264.070 115.138,264.070 115.329 C 264.070 115.520,264.333 115.677,264.654 115.677 C 264.976 115.677,265.239 115.940,265.239 116.261 C 265.239 116.582,265.483 116.845,265.781 116.845 C 266.080 116.845,266.425 117.108,266.548 117.429 C 266.671 117.751,267.128 118.014,267.563 118.014 C 267.998 118.014,268.354 118.189,268.354 118.403 C 268.354 118.617,268.617 118.793,268.939 118.793 C 269.260 118.793,269.523 118.996,269.523 119.245 C 269.523 119.837,272.294 122.297,272.961 122.298 C 273.246 122.298,274.132 122.999,274.931 123.856 C 275.772 124.758,276.744 125.414,277.238 125.414 C 277.707 125.414,278.092 125.602,278.092 125.831 C 278.092 126.370,279.082 127.361,279.622 127.361 C 279.851 127.361,280.039 127.624,280.039 127.945 C 280.039 128.335,280.428 128.530,281.207 128.530 C 281.850 128.530,282.376 128.718,282.376 128.949 C 282.376 129.494,284.527 131.646,285.072 131.646 C 285.303 131.646,285.492 131.908,285.492 132.230 C 285.492 132.593,285.860 132.814,286.465 132.814 C 287.071 132.814,287.439 133.035,287.439 133.398 C 287.439 133.720,287.623 133.982,287.847 133.982 C 288.072 133.982,288.661 134.421,289.158 134.956 C 289.654 135.492,290.434 135.930,290.892 135.930 C 291.371 135.930,291.723 136.177,291.723 136.514 C 291.723 136.835,291.986 137.098,292.308 137.098 C 292.629 137.098,292.892 137.361,292.892 137.683 C 292.892 138.004,293.076 138.267,293.300 138.267 C 293.524 138.267,294.114 138.705,294.610 139.241 C 295.107 139.776,295.887 140.214,296.345 140.214 C 296.824 140.214,297.176 140.462,297.176 140.798 C 297.176 141.120,297.439 141.383,297.760 141.383 C 298.082 141.383,298.345 141.646,298.345 141.967 C 298.345 142.288,298.608 142.551,298.929 142.551 C 299.250 142.551,299.513 142.726,299.513 142.941 C 299.513 143.155,299.951 143.330,300.487 143.330 C 301.093 143.330,301.461 143.551,301.461 143.914 C 301.461 144.236,301.723 144.499,302.045 144.499 C 302.366 144.499,302.629 144.687,302.629 144.918 C 302.629 145.743,304.905 147.614,305.910 147.614 C 306.542 147.614,306.913 147.830,306.913 148.199 C 306.913 148.520,307.089 148.783,307.303 148.783 C 307.517 148.783,307.692 149.046,307.692 149.367 C 307.692 149.688,307.955 149.951,308.277 149.951 C 308.598 149.951,308.861 150.108,308.861 150.299 C 308.861 150.490,309.299 150.756,309.834 150.890 C 310.370 151.025,310.808 151.307,310.808 151.517 C 310.808 151.727,311.071 151.899,311.392 151.899 C 311.714 151.899,311.977 152.162,311.977 152.483 C 311.977 152.804,312.240 153.067,312.561 153.067 C 312.882 153.067,313.145 153.330,313.145 153.651 C 313.145 153.981,313.493 154.236,313.943 154.236 C 314.381 154.236,315.146 154.674,315.643 155.209 C 316.139 155.745,316.744 156.183,316.987 156.183 C 317.230 156.183,317.429 156.446,317.429 156.767 C 317.429 157.089,317.674 157.352,317.972 157.352 C 318.270 157.352,318.615 157.614,318.739 157.936 C 318.862 158.257,319.319 158.520,319.754 158.520 C 320.198 158.520,320.545 158.777,320.545 159.104 C 320.545 159.426,320.808 159.688,321.130 159.688 C 321.451 159.688,321.714 159.864,321.714 160.078 C 321.714 160.292,321.977 160.467,322.298 160.467 C 322.619 160.467,322.882 160.730,322.882 161.052 C 322.882 161.415,323.250 161.636,323.856 161.636 C 324.462 161.636,324.830 161.857,324.830 162.220 C 324.830 162.541,325.093 162.804,325.414 162.804 C 325.735 162.804,325.998 163.067,325.998 163.389 C 325.998 163.710,326.219 163.973,326.490 163.973 C 326.760 163.973,327.311 164.411,327.713 164.946 C 328.131 165.503,328.837 165.920,329.363 165.920 C 329.921 165.920,330.282 166.150,330.282 166.504 C 330.282 166.826,330.545 167.089,330.867 167.089 C 331.188 167.089,331.451 167.288,331.451 167.533 C 331.451 168.187,332.686 169.009,333.690 169.024 C 334.172 169.030,334.567 169.225,334.567 169.455 C 334.567 170.281,336.843 172.152,337.847 172.152 C 338.480 172.152,338.851 172.368,338.851 172.736 C 338.851 173.057,339.026 173.320,339.241 173.320 C 339.455 173.320,339.630 173.583,339.630 173.905 C 339.630 174.226,339.814 174.489,340.038 174.489 C 340.263 174.489,340.852 174.927,341.349 175.463 C 341.845 175.998,342.625 176.436,343.083 176.436 C 343.562 176.436,343.914 176.684,343.914 177.020 C 343.914 177.342,344.177 177.605,344.499 177.605 C 344.820 177.605,345.083 177.868,345.083 178.189 C 345.083 178.510,345.346 178.773,345.667 178.773 C 345.988 178.773,346.251 178.929,346.251 179.120 C 346.251 179.311,346.689 179.578,347.225 179.712 C 347.760 179.846,348.199 180.128,348.199 180.338 C 348.199 180.549,348.462 180.721,348.783 180.721 C 349.104 180.721,349.367 180.983,349.367 181.305 C 349.367 181.626,349.630 181.889,349.951 181.889 C 350.273 181.889,350.536 182.152,350.536 182.473 C 350.536 182.795,350.798 183.057,351.120 183.057 C 351.441 183.057,351.704 183.229,351.704 183.440 C 351.704 183.650,352.142 183.932,352.678 184.066 C 353.213 184.200,353.651 184.467,353.651 184.658 C 353.651 184.849,353.914 185.005,354.236 185.005 C 354.557 185.005,354.820 185.268,354.820 185.589 C 354.820 185.910,355.064 186.173,355.362 186.173 C 355.661 186.173,356.006 186.436,356.129 186.758 C 356.252 187.079,356.709 187.342,357.145 187.342 C 357.588 187.342,357.936 187.598,357.936 187.926 C 357.936 188.247,358.104 188.510,358.309 188.510 C 358.514 188.510,359.419 189.211,360.320 190.068 C 361.220 190.925,362.279 191.626,362.673 191.626 C 363.067 191.626,363.389 191.889,363.389 192.210 C 363.389 192.532,363.545 192.795,363.737 192.795 C 363.929 192.795,364.498 193.230,365.003 193.762 C 365.507 194.293,366.315 194.732,366.796 194.735 C 367.278 194.739,367.673 194.930,367.673 195.159 C 367.673 195.699,368.664 196.689,369.203 196.689 C 369.432 196.689,369.620 196.952,369.620 197.274 C 369.620 197.663,370.010 197.858,370.789 197.858 C 371.431 197.858,371.957 198.047,371.957 198.277 C 371.957 198.822,374.108 200.974,374.654 200.974 C 374.884 200.974,375.073 201.237,375.073 201.558 C 375.073 201.921,375.441 202.142,376.047 202.142 C 376.653 202.142,377.020 202.363,377.020 202.726 C 377.020 203.048,377.204 203.311,377.429 203.311 C 377.653 203.311,378.243 203.749,378.739 204.284 C 379.235 204.820,380.016 205.258,380.473 205.258 C 380.953 205.258,381.305 205.505,381.305 205.842 C 381.305 206.164,381.568 206.426,381.889 206.426 C 382.210 206.426,382.473 206.689,382.473 207.011 C 382.473 207.332,382.657 207.595,382.881 207.595 C 383.106 207.595,383.695 208.033,384.192 208.569 C 384.688 209.104,385.468 209.542,385.926 209.542 C 386.405 209.542,386.758 209.790,386.758 210.127 C 386.758 210.448,387.020 210.711,387.342 210.711 C 387.663 210.711,387.926 210.974,387.926 211.295 C 387.926 211.616,388.189 211.879,388.510 211.879 C 388.832 211.879,389.094 212.051,389.094 212.261 C 389.094 212.471,389.533 212.753,390.068 212.888 C 390.604 213.022,391.042 213.288,391.042 213.479 C 391.042 213.670,391.305 213.827,391.626 213.827 C 391.947 213.827,392.210 214.002,392.210 214.216 C 392.210 214.892,393.736 216.164,394.547 216.164 C 394.980 216.164,395.326 216.423,395.326 216.748 C 395.326 217.069,395.514 217.332,395.743 217.332 C 396.283 217.332,397.274 218.323,397.274 218.862 C 397.274 219.092,397.518 219.279,397.816 219.279 C 398.115 219.279,398.460 219.542,398.583 219.864 C 398.706 220.185,399.076 220.448,399.404 220.448 C 399.935 220.448,400.000 216.752,400.000 186.758 C 400.000 153.327,399.994 153.067,399.221 153.067 C 398.793 153.067,398.442 152.892,398.442 152.678 C 398.442 152.463,398.179 152.288,397.858 152.288 C 397.537 152.288,397.274 152.025,397.274 151.704 C 397.274 151.383,397.011 151.120,396.689 151.120 C 396.368 151.120,396.105 150.857,396.105 150.536 C 396.105 150.172,395.737 149.951,395.131 149.951 C 394.526 149.951,394.158 149.731,394.158 149.367 C 394.158 149.046,393.895 148.783,393.574 148.783 C 393.252 148.783,392.989 148.608,392.989 148.393 C 392.989 148.179,392.726 148.004,392.405 148.004 C 392.084 148.004,391.821 147.829,391.821 147.614 C 391.821 146.938,390.295 145.667,389.484 145.667 C 389.051 145.667,388.705 145.407,388.705 145.083 C 388.705 144.761,388.548 144.499,388.356 144.499 C 388.165 144.499,387.595 144.063,387.091 143.532 C 386.586 143.000,385.779 142.562,385.297 142.558 C 384.815 142.554,384.421 142.362,384.421 142.132 C 384.421 141.610,382.280 139.435,381.766 139.435 C 381.558 139.435,381.287 139.172,381.164 138.851 C 381.041 138.530,380.671 138.267,380.343 138.267 C 380.015 138.267,379.066 137.566,378.234 136.709 C 377.402 135.852,376.351 135.151,375.898 135.151 C 375.424 135.151,375.073 134.902,375.073 134.567 C 375.073 134.245,374.810 133.982,374.489 133.982 C 374.167 133.982,373.905 133.720,373.905 133.398 C 373.905 133.077,373.642 132.814,373.320 132.814 C 372.999 132.814,372.736 132.639,372.736 132.425 C 372.736 132.210,372.473 132.035,372.152 132.035 C 371.831 132.035,371.568 131.772,371.568 131.451 C 371.568 131.087,371.200 130.867,370.594 130.867 C 369.988 130.867,369.620 130.646,369.620 130.282 C 369.620 129.961,369.357 129.698,369.036 129.698 C 368.715 129.698,368.452 129.435,368.452 129.114 C 368.452 128.793,368.189 128.530,367.868 128.530 C 367.546 128.530,367.283 128.354,367.283 128.140 C 367.283 127.926,366.845 127.751,366.310 127.751 C 365.704 127.751,365.336 127.530,365.336 127.167 C 365.336 126.845,365.073 126.582,364.752 126.582 C 364.430 126.582,364.167 126.405,364.167 126.187 C 364.167 125.483,361.661 123.490,360.759 123.478 C 360.278 123.472,359.883 123.263,359.883 123.014 C 359.883 122.427,357.649 120.436,356.625 120.111 C 355.678 119.810,354.820 119.011,354.820 118.431 C 354.820 118.201,354.636 118.014,354.412 118.014 C 354.187 118.014,353.618 117.600,353.146 117.094 C 352.674 116.588,351.894 116.051,351.412 115.899 C 350.930 115.748,350.536 115.461,350.536 115.261 C 350.536 115.061,350.273 114.898,349.951 114.898 C 349.630 114.898,349.367 114.635,349.367 114.314 C 349.367 113.992,349.123 113.729,348.825 113.729 C 348.526 113.729,348.181 113.466,348.058 113.145 C 347.934 112.824,347.557 112.561,347.219 112.561 C 346.880 112.561,346.197 112.123,345.701 111.587 C 345.205 111.052,344.600 110.613,344.357 110.613 C 344.113 110.613,343.914 110.351,343.914 110.029 C 343.914 109.708,343.670 109.445,343.372 109.445 C 343.073 109.445,342.728 109.182,342.605 108.861 C 342.482 108.539,342.025 108.277,341.590 108.277 C 341.154 108.277,340.798 108.101,340.798 107.887 C 340.798 107.673,340.536 107.498,340.214 107.498 C 339.893 107.498,339.630 107.235,339.630 106.913 C 339.630 106.592,339.367 106.329,339.046 106.329 C 338.724 106.329,338.462 106.066,338.462 105.745 C 338.462 105.381,338.094 105.161,337.488 105.161 C 336.882 105.161,336.514 104.940,336.514 104.576 C 336.514 104.255,336.293 103.992,336.022 103.992 C 335.752 103.992,335.202 103.554,334.799 103.019 C 334.381 102.462,333.675 102.045,333.149 102.045 C 332.592 102.045,332.230 101.815,332.230 101.461 C 332.230 101.139,331.967 100.876,331.646 100.876 C 331.324 100.876,331.061 100.689,331.061 100.459 C 331.061 99.940,330.078 98.929,329.573 98.929 C 329.366 98.929,329.096 98.666,328.973 98.345 C 328.850 98.023,328.305 97.760,327.763 97.760 C 327.221 97.760,326.777 97.572,326.777 97.341 C 326.777 96.516,324.501 94.645,323.496 94.645 C 322.864 94.645,322.493 94.429,322.493 94.060 C 322.493 93.739,322.317 93.476,322.103 93.476 C 321.889 93.476,321.714 93.213,321.714 92.892 C 321.714 92.571,321.530 92.308,321.306 92.308 C 321.081 92.308,320.491 91.870,319.995 91.334 C 319.499 90.798,318.719 90.360,318.261 90.360 C 317.781 90.360,317.429 90.113,317.429 89.776 C 317.429 89.455,317.167 89.192,316.845 89.192 C 316.524 89.192,316.261 88.929,316.261 88.608 C 316.261 88.286,316.017 88.023,315.718 88.023 C 315.420 88.023,315.075 87.760,314.952 87.439 C 314.828 87.118,314.371 86.855,313.936 86.855 C 313.501 86.855,313.145 86.680,313.145 86.465 C 313.145 86.251,312.882 86.076,312.561 86.076 C 312.240 86.076,311.977 85.813,311.977 85.492 C 311.977 85.170,311.714 84.907,311.392 84.907 C 311.071 84.907,310.808 84.645,310.808 84.323 C 310.808 84.002,310.545 83.739,310.224 83.739 C 309.903 83.739,309.640 83.567,309.640 83.357 C 309.640 83.147,309.202 82.865,308.666 82.731 C 308.130 82.596,307.692 82.330,307.692 82.139 C 307.692 81.948,307.429 81.792,307.108 81.792 C 306.787 81.792,306.524 81.616,306.524 81.402 C 306.524 80.726,304.998 79.455,304.187 79.455 C 303.759 79.455,303.408 79.279,303.408 79.065 C 303.408 78.851,303.145 78.676,302.824 78.676 C 302.502 78.676,302.240 78.413,302.240 78.092 C 302.240 77.770,302.064 77.507,301.850 77.507 C 301.636 77.507,301.461 77.244,301.461 76.923 C 301.461 76.602,301.216 76.339,300.918 76.339 C 300.620 76.339,300.275 76.076,300.151 75.755 C 300.028 75.433,299.559 75.170,299.108 75.170 C 298.235 75.170,297.176 74.331,297.176 73.640 C 297.176 73.411,296.913 73.223,296.592 73.223 C 296.271 73.223,296.008 72.960,296.008 72.639 C 296.008 72.310,295.660 72.055,295.210 72.055 C 294.772 72.055,294.007 71.616,293.510 71.081 C 293.014 70.545,292.409 70.107,292.166 70.107 C 291.922 70.107,291.723 69.844,291.723 69.523 C 291.723 69.202,291.479 68.939,291.181 68.939 C 290.883 68.939,290.537 68.676,290.414 68.354 C 290.291 68.033,289.913 67.770,289.575 67.770 C 289.237 67.770,288.554 67.332,288.057 66.796 C 287.561 66.261,286.956 65.823,286.713 65.823 C 286.470 65.823,286.271 65.560,286.271 65.239 C 286.271 64.875,285.903 64.654,285.297 64.654 C 284.691 64.654,284.323 64.434,284.323 64.070 C 284.323 63.749,284.060 63.486,283.739 63.486 C 283.418 63.486,283.155 63.223,283.155 62.902 C 283.155 62.580,282.892 62.317,282.571 62.317 C 282.249 62.317,281.986 62.142,281.986 61.928 C 281.986 61.714,281.723 61.538,281.402 61.538 C 281.081 61.538,280.818 61.276,280.818 60.954 C 280.818 60.591,280.450 60.370,279.844 60.370 C 279.238 60.370,278.870 60.149,278.870 59.786 C 278.870 59.464,278.608 59.202,278.286 59.202 C 277.965 59.202,277.702 59.014,277.702 58.784 C 277.702 58.041,276.615 57.254,275.588 57.254 C 274.957 57.254,274.586 57.038,274.586 56.670 C 274.586 56.349,274.323 56.086,274.002 56.086 C 273.681 56.086,273.418 55.898,273.418 55.668 C 273.418 55.149,272.435 54.138,271.929 54.138 C 271.723 54.138,271.453 53.875,271.329 53.554 C 271.206 53.233,270.749 52.970,270.314 52.970 C 269.870 52.970,269.523 52.713,269.523 52.386 C 269.523 52.064,269.339 51.801,269.115 51.801 C 268.890 51.801,268.301 51.363,267.804 50.828 C 267.308 50.292,266.528 49.854,266.070 49.854 C 265.591 49.854,265.239 49.607,265.239 49.270 C 265.239 48.948,264.976 48.685,264.654 48.685 C 264.333 48.685,264.070 48.423,264.070 48.101 C 264.070 47.780,263.886 47.517,263.662 47.517 C 263.438 47.517,262.848 47.079,262.352 46.543 C 261.855 46.008,261.075 45.570,260.617 45.570 C 260.138 45.570,259.786 45.322,259.786 44.985 C 259.786 44.664,259.523 44.401,259.202 44.401 C 258.880 44.401,258.617 44.138,258.617 43.817 C 258.617 43.496,258.354 43.233,258.033 43.233 C 257.712 43.233,257.449 43.061,257.449 42.851 C 257.449 42.641,257.011 42.359,256.475 42.224 C 255.940 42.090,255.501 41.824,255.501 41.633 C 255.501 41.442,255.239 41.285,254.917 41.285 C 254.596 41.285,254.333 41.022,254.333 40.701 C 254.333 40.380,254.070 40.117,253.749 40.117 C 253.427 40.117,253.165 39.882,253.165 39.594 C 253.165 39.306,252.507 38.737,251.704 38.328 C 250.901 37.920,250.185 37.454,250.114 37.293 C 250.042 37.132,249.735 37.001,249.432 37.001 C 249.129 37.001,248.880 36.810,248.880 36.577 C 248.880 35.966,247.248 34.692,246.446 34.677 C 246.071 34.670,245.764 34.476,245.764 34.247 C 245.764 33.708,244.773 32.717,244.234 32.717 C 244.005 32.717,243.817 32.454,243.817 32.132 C 243.817 31.811,243.573 31.548,243.274 31.548 C 242.976 31.548,242.631 31.285,242.508 30.964 C 242.384 30.643,241.927 30.380,241.492 30.380 C 241.057 30.380,240.701 30.204,240.701 29.990 C 240.701 29.776,240.438 29.601,240.117 29.601 C 239.796 29.601,239.533 29.338,239.533 29.017 C 239.533 28.695,239.288 28.432,238.990 28.432 C 238.692 28.432,238.347 28.169,238.223 27.848 C 238.100 27.527,237.643 27.264,237.208 27.264 C 236.764 27.264,236.417 27.007,236.417 26.680 C 236.417 26.358,236.154 26.095,235.833 26.095 C 235.511 26.095,235.248 25.920,235.248 25.706 C 235.248 25.492,234.985 25.316,234.664 25.316 C 234.343 25.316,234.080 25.054,234.080 24.732 C 234.080 24.411,233.817 24.148,233.496 24.148 C 233.174 24.148,232.911 23.885,232.911 23.564 C 232.911 23.200,232.544 22.980,231.938 22.980 C 231.332 22.980,230.964 22.759,230.964 22.395 C 230.964 22.074,230.701 21.811,230.380 21.811 C 230.058 21.811,229.796 21.636,229.796 21.422 C 229.796 21.207,229.533 21.032,229.211 21.032 C 228.890 21.032,228.627 20.769,228.627 20.448 C 228.627 20.084,228.259 19.864,227.653 19.864 C 227.047 19.864,226.680 19.643,226.680 19.279 C 226.680 18.958,226.417 18.695,226.095 18.695 C 225.774 18.695,225.511 18.432,225.511 18.111 C 225.511 17.790,225.290 17.527,225.019 17.527 C 224.749 17.527,224.199 17.089,223.796 16.553 C 223.378 15.996,222.672 15.579,222.146 15.579 C 221.640 15.579,221.227 15.376,221.227 15.127 C 221.227 14.370,218.808 12.463,217.846 12.463 C 217.349 12.463,216.943 12.274,216.943 12.043 C 216.943 11.289,213.520 8.179,212.689 8.179 C 212.229 8.179,211.879 7.927,211.879 7.595 C 211.879 7.274,211.616 7.011,211.295 7.011 C 210.974 7.011,210.711 6.748,210.711 6.426 C 210.711 6.105,210.448 5.842,210.127 5.842 C 209.805 5.842,209.542 5.686,209.542 5.495 C 209.542 5.304,209.104 5.038,208.569 4.903 C 208.033 4.769,207.595 4.487,207.595 4.277 C 207.595 4.067,207.332 3.895,207.011 3.895 C 206.689 3.895,206.426 3.632,206.426 3.311 C 206.426 2.989,206.164 2.726,205.842 2.726 C 205.521 2.726,205.258 2.463,205.258 2.142 C 205.258 1.821,204.995 1.558,204.674 1.558 C 204.352 1.558,204.090 1.383,204.090 1.168 C 204.090 0.954,203.651 0.779,203.116 0.779 C 202.580 0.779,202.142 0.604,202.142 0.389 C 202.142 0.175,201.178 0.000,200.000 0.000 C 198.822 0.000,197.858 0.175,197.858 0.389 M198.209 100.372 C 196.830 101.325,195.910 102.294,195.910 102.796 C 195.910 103.025,195.516 103.219,195.034 103.226 C 194.029 103.240,192.795 104.062,192.795 104.717 C 192.795 104.961,192.532 105.161,192.210 105.161 C 191.889 105.161,191.626 105.424,191.626 105.745 C 191.626 106.099,191.264 106.329,190.707 106.329 C 190.181 106.329,189.475 106.746,189.057 107.303 C 188.654 107.838,188.104 108.277,187.834 108.277 C 187.563 108.277,187.342 108.539,187.342 108.861 C 187.342 109.224,186.974 109.445,186.368 109.445 C 185.762 109.445,185.394 109.666,185.394 110.029 C 185.394 110.351,185.131 110.613,184.810 110.613 C 184.489 110.613,184.226 110.789,184.226 111.003 C 184.226 111.217,183.963 111.392,183.642 111.392 C 183.320 111.392,183.057 111.655,183.057 111.977 C 183.057 112.304,182.710 112.561,182.266 112.561 C 181.831 112.561,181.374 112.824,181.251 113.145 C 181.128 113.466,180.783 113.729,180.484 113.729 C 180.186 113.729,179.942 113.992,179.942 114.314 C 179.942 114.635,179.679 114.898,179.357 114.898 C 179.036 114.898,178.773 115.054,178.773 115.245 C 178.773 115.436,178.335 115.702,177.799 115.837 C 177.264 115.971,176.826 116.253,176.826 116.463 C 176.826 116.673,176.563 116.845,176.241 116.845 C 175.920 116.845,175.657 117.108,175.657 117.429 C 175.657 117.751,175.394 118.014,175.073 118.014 C 174.752 118.014,174.489 118.277,174.489 118.598 C 174.489 118.961,174.121 119.182,173.515 119.182 C 172.980 119.182,172.541 119.357,172.541 119.572 C 172.541 119.786,172.278 119.961,171.957 119.961 C 171.636 119.961,171.373 120.224,171.373 120.545 C 171.373 120.867,171.110 121.130,170.789 121.130 C 170.467 121.130,170.204 121.392,170.204 121.714 C 170.204 122.077,169.837 122.298,169.231 122.298 C 168.625 122.298,168.257 122.519,168.257 122.882 C 168.257 123.204,167.994 123.466,167.673 123.466 C 167.352 123.466,167.089 123.642,167.089 123.856 C 167.089 124.070,166.826 124.245,166.504 124.245 C 166.183 124.245,165.920 124.508,165.920 124.830 C 165.920 125.193,165.552 125.414,164.946 125.414 C 164.341 125.414,163.973 125.635,163.973 125.998 C 163.973 126.319,163.710 126.582,163.389 126.582 C 163.067 126.582,162.804 126.845,162.804 127.167 C 162.804 127.488,162.541 127.751,162.220 127.751 C 161.899 127.751,161.636 127.926,161.636 128.140 C 161.636 128.354,161.280 128.530,160.845 128.530 C 160.409 128.530,159.953 128.793,159.829 129.114 C 159.706 129.435,159.361 129.698,159.063 129.698 C 158.764 129.698,158.520 129.961,158.520 130.282 C 158.520 130.604,158.257 130.867,157.936 130.867 C 157.614 130.867,157.352 131.130,157.352 131.451 C 157.352 131.814,156.984 132.035,156.378 132.035 C 155.842 132.035,155.404 132.210,155.404 132.425 C 155.404 132.639,155.141 132.814,154.820 132.814 C 154.499 132.814,154.236 133.077,154.236 133.398 C 154.236 133.720,153.973 133.982,153.651 133.982 C 153.330 133.982,153.067 134.245,153.067 134.567 C 153.067 134.904,152.715 135.151,152.236 135.151 C 151.778 135.151,150.998 135.589,150.501 136.125 C 150.005 136.660,149.415 137.098,149.191 137.098 C 148.966 137.098,148.783 137.361,148.783 137.683 C 148.783 138.046,148.415 138.267,147.809 138.267 C 147.203 138.267,146.835 138.488,146.835 138.851 C 146.835 139.172,146.636 139.435,146.393 139.435 C 146.150 139.435,145.545 139.873,145.049 140.409 C 144.552 140.944,143.869 141.383,143.531 141.383 C 143.193 141.383,142.815 141.646,142.692 141.967 C 142.569 142.288,142.224 142.551,141.925 142.551 C 141.627 142.551,141.383 142.814,141.383 143.135 C 141.383 143.457,141.120 143.720,140.798 143.720 C 140.477 143.720,140.214 143.892,140.214 144.102 C 140.214 144.312,139.776 144.594,139.241 144.728 C 138.705 144.862,138.267 145.129,138.267 145.320 C 138.267 145.511,138.004 145.667,137.683 145.667 C 137.361 145.667,137.098 145.930,137.098 146.251 C 137.098 146.573,136.835 146.835,136.514 146.835 C 136.193 146.835,135.930 147.098,135.930 147.420 C 135.930 147.757,135.578 148.004,135.098 148.004 C 134.641 148.004,133.860 148.442,133.364 148.978 C 132.868 149.513,132.278 149.951,132.054 149.951 C 131.829 149.951,131.646 150.214,131.646 150.536 C 131.646 150.863,131.298 151.120,130.854 151.120 C 130.419 151.120,129.962 151.383,129.839 151.704 C 129.716 152.025,129.435 152.288,129.214 152.288 C 128.994 152.288,128.408 152.726,127.911 153.262 C 127.415 153.797,126.732 154.236,126.394 154.236 C 126.056 154.236,125.678 154.499,125.555 154.820 C 125.431 155.141,125.086 155.404,124.788 155.404 C 124.490 155.404,124.245 155.667,124.245 155.988 C 124.245 156.310,123.982 156.573,123.661 156.573 C 123.340 156.573,123.077 156.748,123.077 156.962 C 123.077 157.176,122.721 157.352,122.286 157.352 C 121.851 157.352,121.394 157.614,121.270 157.936 C 121.147 158.257,120.802 158.520,120.504 158.520 C 120.205 158.520,119.961 158.708,119.961 158.937 C 119.961 159.548,119.087 160.322,118.010 160.663 C 116.956 160.998,114.898 162.909,114.898 163.553 C 114.898 163.784,114.491 163.973,113.994 163.973 C 113.033 163.973,110.613 165.879,110.613 166.636 C 110.613 166.885,110.170 167.089,109.628 167.089 C 109.085 167.089,108.541 167.352,108.417 167.673 C 108.294 167.994,108.024 168.257,107.818 168.257 C 107.312 168.257,106.329 169.268,106.329 169.787 C 106.329 170.017,105.972 170.204,105.535 170.204 C 105.098 170.204,104.083 170.862,103.280 171.665 C 102.476 172.468,101.169 173.460,100.374 173.869 C 99.579 174.277,98.929 174.847,98.929 175.134 C 98.929 175.422,98.666 175.657,98.345 175.657 C 98.023 175.657,97.760 175.920,97.760 176.241 C 97.760 176.584,97.398 176.831,96.884 176.838 C 95.880 176.852,94.645 177.675,94.645 178.329 C 94.645 178.573,94.382 178.773,94.060 178.773 C 93.739 178.773,93.476 179.036,93.476 179.357 C 93.476 179.721,93.108 179.942,92.502 179.942 C 91.897 179.942,91.529 180.162,91.529 180.526 C 91.529 180.847,91.266 181.110,90.944 181.110 C 90.623 181.110,90.360 181.285,90.360 181.500 C 90.360 181.714,90.097 181.889,89.776 181.889 C 89.455 181.889,89.192 182.152,89.192 182.473 C 89.192 182.837,88.824 183.057,88.218 183.057 C 87.612 183.057,87.244 183.278,87.244 183.642 C 87.244 183.963,86.981 184.226,86.660 184.226 C 86.339 184.226,86.076 184.489,86.076 184.810 C 86.076 185.131,85.813 185.394,85.492 185.394 C 85.170 185.394,84.907 185.570,84.907 185.784 C 84.907 185.998,84.551 186.173,84.116 186.173 C 83.681 186.173,83.224 186.436,83.101 186.758 C 82.978 187.079,82.633 187.342,82.334 187.342 C 82.036 187.342,81.792 187.605,81.792 187.926 C 81.792 188.247,81.529 188.510,81.207 188.510 C 80.886 188.510,80.623 188.666,80.623 188.857 C 80.623 189.048,80.185 189.315,79.649 189.449 C 79.114 189.584,78.676 189.865,78.676 190.076 C 78.676 190.286,78.413 190.458,78.092 190.458 C 77.770 190.458,77.507 190.721,77.507 191.042 C 77.507 191.363,77.244 191.626,76.923 191.626 C 76.602 191.626,76.339 191.889,76.339 192.210 C 76.339 192.574,75.971 192.795,75.365 192.795 C 74.830 192.795,74.391 192.970,74.391 193.184 C 74.391 193.398,74.129 193.574,73.807 193.574 C 73.486 193.574,73.223 193.836,73.223 194.158 C 73.223 194.479,72.960 194.742,72.639 194.742 C 72.317 194.742,72.055 195.005,72.055 195.326 C 72.055 195.690,71.687 195.910,71.081 195.910 C 70.475 195.910,70.107 196.131,70.107 196.495 C 70.107 196.816,69.844 197.079,69.523 197.079 C 69.202 197.079,68.939 197.254,68.939 197.468 C 68.939 197.683,68.676 197.858,68.354 197.858 C 68.033 197.858,67.770 198.121,67.770 198.442 C 67.770 198.806,67.402 199.026,66.796 199.026 C 66.191 199.026,65.823 199.247,65.823 199.611 C 65.823 199.932,65.560 200.195,65.239 200.195 C 64.917 200.195,64.654 200.458,64.654 200.779 C 64.654 201.100,64.391 201.363,64.070 201.363 C 63.749 201.363,63.486 201.519,63.486 201.710 C 63.486 201.901,63.048 202.168,62.512 202.302 C 61.977 202.437,61.538 202.718,61.538 202.929 C 61.538 203.139,61.276 203.311,60.954 203.311 C 60.633 203.311,60.370 203.574,60.370 203.895 C 60.370 204.216,60.107 204.479,59.786 204.479 C 59.464 204.479,59.202 204.742,59.202 205.063 C 59.202 205.427,58.834 205.648,58.228 205.648 C 57.692 205.648,57.254 205.823,57.254 206.037 C 57.254 206.251,56.991 206.426,56.670 206.426 C 56.349 206.426,56.086 206.689,56.086 207.011 C 56.086 207.332,55.823 207.595,55.501 207.595 C 55.180 207.595,54.917 207.858,54.917 208.179 C 54.917 208.543,54.549 208.763,53.944 208.763 C 53.338 208.763,52.970 208.984,52.970 209.348 C 52.970 209.669,52.707 209.932,52.386 209.932 C 52.064 209.932,51.801 210.107,51.801 210.321 C 51.801 210.536,51.538 210.711,51.217 210.711 C 50.896 210.711,50.633 210.962,50.633 211.268 C 50.633 211.574,50.239 211.881,49.757 211.950 L 48.880 212.074 48.880 288.218 L 48.880 364.362 99.903 364.362 L 150.925 364.362 151.024 314.216 L 151.123 264.070 200.196 264.070 L 249.270 264.070 249.270 314.314 L 249.270 364.557 300.292 364.557 L 351.315 364.557 351.315 288.218 L 351.315 211.879 350.341 211.879 C 349.735 211.879,349.367 211.659,349.367 211.295 C 349.367 210.974,349.104 210.711,348.783 210.711 C 348.462 210.711,348.199 210.536,348.199 210.321 C 348.199 210.107,347.936 209.932,347.614 209.932 C 347.293 209.932,347.030 209.669,347.030 209.348 C 347.030 208.984,346.662 208.763,346.056 208.763 C 345.451 208.763,345.083 208.543,345.083 208.179 C 345.083 207.858,344.820 207.595,344.499 207.595 C 344.177 207.595,343.914 207.332,343.914 207.011 C 343.914 206.689,343.651 206.426,343.330 206.426 C 343.009 206.426,342.746 206.251,342.746 206.037 C 342.746 205.823,342.308 205.648,341.772 205.648 C 341.166 205.648,340.798 205.427,340.798 205.063 C 340.798 204.742,340.536 204.479,340.214 204.479 C 339.893 204.479,339.630 204.216,339.630 203.895 C 339.630 203.574,339.367 203.311,339.046 203.311 C 338.724 203.311,338.462 203.139,338.462 202.929 C 338.462 202.718,338.023 202.437,337.488 202.302 C 336.952 202.168,336.514 201.901,336.514 201.710 C 336.514 201.519,336.251 201.363,335.930 201.363 C 335.609 201.363,335.346 201.100,335.346 200.779 C 335.346 200.458,335.083 200.195,334.761 200.195 C 334.440 200.195,334.177 199.932,334.177 199.611 C 334.177 199.247,333.809 199.026,333.204 199.026 C 332.598 199.026,332.230 198.806,332.230 198.442 C 332.230 198.121,331.967 197.858,331.646 197.858 C 331.324 197.858,331.061 197.683,331.061 197.468 C 331.061 197.254,330.798 197.079,330.477 197.079 C 330.156 197.079,329.893 196.816,329.893 196.495 C 329.893 196.131,329.525 195.910,328.919 195.910 C 328.313 195.910,327.945 195.690,327.945 195.326 C 327.945 195.005,327.683 194.742,327.361 194.742 C 327.040 194.742,326.777 194.479,326.777 194.158 C 326.777 193.836,326.514 193.574,326.193 193.574 C 325.871 193.574,325.609 193.398,325.609 193.184 C 325.609 192.970,325.170 192.795,324.635 192.795 C 324.029 192.795,323.661 192.574,323.661 192.210 C 323.661 191.889,323.398 191.626,323.077 191.626 C 322.756 191.626,322.493 191.391,322.493 191.103 C 322.493 190.816,321.835 190.246,321.032 189.837 C 320.229 189.429,319.513 188.963,319.442 188.802 C 319.370 188.642,319.064 188.510,318.760 188.510 C 318.457 188.510,318.208 188.319,318.208 188.086 C 318.208 187.540,316.613 186.203,315.941 186.186 C 315.317 186.171,314.314 185.219,314.314 184.643 C 314.314 184.414,314.069 184.226,313.771 184.226 C 313.473 184.226,313.128 183.963,313.004 183.642 C 312.881 183.320,312.336 183.057,311.794 183.057 C 311.252 183.057,310.808 182.870,310.808 182.640 C 310.808 182.121,309.825 181.110,309.320 181.110 C 309.113 181.110,308.843 180.847,308.720 180.526 C 308.597 180.204,308.052 179.942,307.510 179.942 C 306.968 179.942,306.524 179.753,306.524 179.522 C 306.524 178.697,304.247 176.826,303.243 176.826 C 302.611 176.826,302.240 176.610,302.240 176.241 C 302.240 175.920,302.064 175.657,301.850 175.657 C 301.636 175.657,301.461 175.394,301.461 175.073 C 301.461 174.752,301.198 174.489,300.876 174.489 C 300.555 174.489,300.292 174.333,300.292 174.142 C 300.292 173.951,299.833 173.679,299.271 173.538 C 298.152 173.257,297.176 172.443,297.176 171.790 C 297.176 171.561,296.932 171.373,296.634 171.373 C 296.335 171.373,295.990 171.110,295.867 170.789 C 295.744 170.467,295.366 170.204,295.028 170.204 C 294.689 170.204,294.007 169.766,293.510 169.231 C 293.014 168.695,292.428 168.257,292.207 168.257 C 291.987 168.257,291.706 167.994,291.583 167.673 C 291.459 167.352,291.090 167.089,290.762 167.089 C 290.433 167.089,289.484 166.388,288.653 165.531 C 287.821 164.674,286.770 163.973,286.316 163.973 C 285.843 163.973,285.492 163.724,285.492 163.389 C 285.492 163.067,285.229 162.804,284.907 162.804 C 284.586 162.804,284.323 162.541,284.323 162.220 C 284.323 161.899,284.060 161.636,283.739 161.636 C 283.418 161.636,283.155 161.480,283.155 161.289 C 283.155 161.098,282.717 160.831,282.181 160.697 C 281.646 160.563,281.207 160.281,281.207 160.070 C 281.207 159.860,280.944 159.688,280.623 159.688 C 280.302 159.688,280.039 159.426,280.039 159.104 C 280.039 158.783,279.795 158.520,279.496 158.520 C 279.198 158.520,278.853 158.257,278.730 157.936 C 278.606 157.614,278.149 157.352,277.714 157.352 C 277.279 157.352,276.923 157.176,276.923 156.962 C 276.923 156.748,276.660 156.573,276.339 156.573 C 276.018 156.573,275.755 156.310,275.755 155.988 C 275.755 155.667,275.510 155.404,275.212 155.404 C 274.914 155.404,274.569 155.141,274.445 154.820 C 274.322 154.499,273.865 154.236,273.430 154.236 C 272.986 154.236,272.639 153.979,272.639 153.651 C 272.639 153.330,272.376 153.067,272.055 153.067 C 271.733 153.067,271.470 152.892,271.470 152.678 C 271.470 152.463,271.207 152.288,270.886 152.288 C 270.565 152.288,270.302 152.025,270.302 151.704 C 270.302 151.340,269.934 151.120,269.328 151.120 C 268.722 151.120,268.354 150.899,268.354 150.536 C 268.354 150.214,268.171 149.951,267.946 149.951 C 267.722 149.951,267.132 149.513,266.636 148.978 C 266.140 148.442,265.359 148.004,264.902 148.004 C 264.422 148.004,264.070 147.757,264.070 147.420 C 264.070 147.098,263.807 146.835,263.486 146.835 C 263.165 146.835,262.902 146.573,262.902 146.251 C 262.902 145.930,262.639 145.667,262.317 145.667 C 261.996 145.667,261.733 145.495,261.733 145.285 C 261.733 145.075,261.295 144.793,260.759 144.658 C 260.224 144.524,259.786 144.258,259.786 144.067 C 259.786 143.876,259.523 143.720,259.202 143.720 C 258.880 143.720,258.617 143.457,258.617 143.135 C 258.617 142.814,258.373 142.551,258.075 142.551 C 257.776 142.551,257.431 142.288,257.308 141.967 C 257.185 141.646,256.728 141.383,256.293 141.383 C 255.849 141.383,255.501 141.126,255.501 140.798 C 255.501 140.477,255.239 140.214,254.917 140.214 C 254.596 140.214,254.333 140.039,254.333 139.825 C 254.333 139.611,254.070 139.435,253.749 139.435 C 253.427 139.435,253.165 139.172,253.165 138.851 C 253.165 138.488,252.797 138.267,252.191 138.267 C 251.585 138.267,251.217 138.046,251.217 137.683 C 251.217 137.361,250.954 137.098,250.633 137.098 C 250.312 137.098,250.049 136.835,250.049 136.514 C 250.049 136.193,249.786 135.930,249.464 135.930 C 249.143 135.930,248.880 135.755,248.880 135.540 C 248.880 135.326,248.442 135.151,247.907 135.151 C 247.301 135.151,246.933 134.930,246.933 134.567 C 246.933 134.245,246.670 133.982,246.349 133.982 C 246.027 133.982,245.764 133.720,245.764 133.398 C 245.764 133.077,245.501 132.814,245.180 132.814 C 244.859 132.814,244.596 132.639,244.596 132.425 C 244.596 132.210,244.158 132.035,243.622 132.035 C 243.016 132.035,242.648 131.814,242.648 131.451 C 242.648 131.130,242.386 130.867,242.064 130.867 C 241.743 130.867,241.480 130.604,241.480 130.282 C 241.480 129.961,241.236 129.698,240.937 129.698 C 240.639 129.698,240.294 129.435,240.171 129.114 C 240.047 128.793,239.591 128.530,239.155 128.530 C 238.720 128.530,238.364 128.354,238.364 128.140 C 238.364 127.926,238.101 127.751,237.780 127.751 C 237.459 127.751,237.196 127.488,237.196 127.167 C 237.196 126.845,236.933 126.582,236.611 126.582 C 236.290 126.582,236.027 126.319,236.027 125.998 C 236.027 125.635,235.659 125.414,235.054 125.414 C 234.448 125.414,234.080 125.193,234.080 124.830 C 234.080 124.508,233.817 124.245,233.496 124.245 C 233.174 124.245,232.911 124.070,232.911 123.856 C 232.911 123.642,232.648 123.466,232.327 123.466 C 232.006 123.466,231.743 123.204,231.743 122.882 C 231.743 122.519,231.375 122.298,230.769 122.298 C 230.163 122.298,229.796 122.077,229.796 121.714 C 229.796 121.392,229.533 121.130,229.211 121.130 C 228.890 121.130,228.627 120.930,228.627 120.686 C 228.627 120.031,227.392 119.209,226.388 119.194 C 225.874 119.187,225.511 118.940,225.511 118.598 C 225.511 118.277,225.248 118.014,224.927 118.014 C 224.606 118.014,224.343 117.778,224.343 117.491 C 224.343 117.203,223.701 116.634,222.916 116.225 C 222.131 115.816,220.788 114.825,219.931 114.021 C 219.075 113.218,218.052 112.561,217.658 112.561 C 217.265 112.561,216.943 112.373,216.943 112.144 C 216.943 111.624,215.959 110.613,215.454 110.613 C 215.248 110.613,214.978 110.351,214.854 110.029 C 214.731 109.708,214.186 109.445,213.644 109.445 C 213.102 109.445,212.658 109.257,212.658 109.028 C 212.658 108.508,211.675 107.498,211.170 107.498 C 210.963 107.498,210.693 107.235,210.570 106.913 C 210.447 106.592,209.902 106.329,209.360 106.329 C 208.818 106.329,208.374 106.140,208.374 105.910 C 208.374 105.084,206.097 103.213,205.093 103.213 C 204.461 103.213,204.090 102.997,204.090 102.629 C 204.090 102.308,203.914 102.045,203.700 102.045 C 203.486 102.045,203.311 101.782,203.311 101.461 C 203.311 101.139,203.062 100.876,202.759 100.876 C 202.455 100.876,202.147 100.697,202.074 100.478 C 201.816 99.703,199.277 99.633,198.209 100.372 " stroke="none" fill="#ffffff" fill-rule="evenodd"></path><path id="path1" d="" stroke="none" fill="#100fcfc" fill-rule="evenodd"></path><path id="path2" d="" stroke="none" fill="#100fcfc" fill-rule="evenodd"></path><path id="path3" d="" stroke="none" fill="#100fcfc" fill-rule="evenodd"></path><path id="path4" d="" stroke="none" fill="#100fcfc" fill-rule="evenodd"></path></g></svg>